<?xml version="1.0" encoding="UTF-8"?>
<svg viewBox="0 0 553 480" xmlns="http://www.w3.org/2000/svg">
<path d="m355.63 326.27-54.249 61.435c2.11-6.82 4.26-13.629 6.39-20.438l4.75-14.769 2.36-7.38 2.42-7.369c2.453-7.48 4.94-14.952 7.46-22.418h-5.52c-2.45 6.869-4.88 13.739-7.24 20.638-6.8 19.572-13.276 39.257-19.429 59.055-0.43 1.37-0.85 2.74-1.28 4.11l-1.22 1.39c2-15.199 3.89-30.404 5.67-45.617 1.493-13.192 2.923-26.384 4.289-39.576h-5.539c-1.54 12.945-3.13 25.891-4.77 38.837-2.42 18.598-5.04 37.163-7.86 55.695l-0.57 0.65h13.2l0.33-1.09c1.259-0.898 2.461-1.873 3.6-2.92 4.259-3.939 7.619-8.849 12.259-12.329 7.76-5.819 19-7.659 23.79-16.058 2.219-3.87 2.639-8.51 4.339-12.639 3.7-9 13.07-14.719 16.7-23.738 1.953-4.964 1.996-10.476 0.12-15.469z" fill="#E4E8CC"/>
<path d="m301.6 299.87h-2.24v-22.998h4.42c0.369-4 0.759-8 1.109-11.999l-3.539-13.059c-0.414 4.113-0.83 8.219-1.25 12.319-1.234 11.959-2.54 23.908-3.92 35.847h5.379l0.041-0.11z" fill="#E4E8CC"/>
<path d="m312.2 174.04c0.78-11.179 1.52-22.362 2.22-33.547-0.54 0-1.08 0.05-1.62 0s-1 0-1.48-0.07c-0.86 11.112-1.753 22.218-2.68 33.317-1.853 21.998-3.853 43.996-5.999 65.995h4.509c1.827-21.885 3.51-43.784 5.05-65.695z" fill="#E4E8CC"/>
<path d="m287.03 315.33h-3.73c-0.967 22.378-2.353 44.709-4.16 66.994-0.793 9.28-1.677 18.546-2.65 27.798v0.35h4.62c0.893-9.259 1.687-18.528 2.38-27.808 1.58-22.411 2.76-44.856 3.54-67.334z" fill="#E4E8CC"/>
<path d="m288.28 237.49c0-10.919-0.09-21.832-0.27-32.738-0.2 0.18-0.39 0.37-0.59 0.54l-2.08-2.999c0.073 11.752 0.073 23.498 0 35.237-0.18 20.818-0.643 41.633-1.39 62.445h3.54c0.533-20.845 0.797-41.673 0.79-62.485z" fill="#E4E8CC"/>
<path d="m237.78 299.93h-36.189l4.91 2.59c0.349 0.178 0.619 0.479 0.758 0.845 0.14 0.365 0.138 0.77-4e-3 1.135s-0.414 0.664-0.764 0.839c-0.35 0.176-0.753 0.215-1.13 0.11l-4.49-1.179-0.22 0.819c-0.107 0.394-0.346 0.74-0.678 0.978-0.331 0.239-0.734 0.356-1.142 0.332l-1.21-0.06-0.14 0.76c-0.035 0.183-0.092 0.361-0.17 0.53-0.129 0.315-0.321 0.6-0.563 0.839-0.243 0.239-0.53 0.426-0.847 0.551l-4.66 1.83c-1.133 0.447-2.389 0.472-3.54 0.07l-9.359-3.29-0.68-0.24c-1.21-0.42-2.493-0.59-3.77-0.5l-0.77 0.06v0.68l-0.24 7.7h103.61v-15.399h-38.709z" fill="#AEB48A"/>
<path d="m34.299 299.93h-26.089c-2.043 0-4.0026 0.811-5.4482 2.254-1.4456 1.444-2.259 3.402-2.2617 5.445 0.00265 2.043 0.81608 4.002 2.2617 5.445 1.4456 1.444 3.4051 2.255 5.4482 2.255h30.169l-1.9999-7.7-2.08-7.699z" fill="#AEB48A"/>
<path d="m519.92 255.69h-6.129c-1 7.15-8.76 11.599-13.7 18.489 0.9 2.586 1.707 5.21 2.42 7.869h9.89c3.732 0 7.34 1.344 10.162 3.786 2.823 2.443 4.671 5.82 5.207 9.513l0.65 4.5h5.92c12.25-27.028-12.62-30.998-14.42-44.157z" fill="#5F6C16"/>
<path d="m322.17 286.44c-0.154-0.601-0.415-1.17-0.77-1.68-0.241-0.346-0.551-0.638-0.91-0.86-0.849-0.464-1.844-0.586-2.78-0.34-0.216 0.046-0.41 0.163-0.553 0.331s-0.226 0.379-0.237 0.599v8.67c-5e-3 0.233 0.071 0.46 0.215 0.642 0.144 0.183 0.348 0.309 0.575 0.358 0.923 0.288 1.921 0.212 2.79-0.21 1.27-0.73 2-2.53 2-5 7e-3 -0.848-0.104-1.693-0.33-2.51z" fill="#fff"/>
<path d="m379.02 243.02h-76.528l3.33 12.269 5.85 21.549h5.31v3.999c0 0.112 0.024 0.222 0.071 0.323 0.046 0.102 0.114 0.192 0.198 0.265 0.085 0.073 0.184 0.127 0.291 0.158 0.107 0.032 0.219 0.04 0.33 0.024 0.952-0.139 1.924-0.043 2.83 0.28l-8.09-30.197-0.9-3.35h34.779l0.72 2.67 0.18 0.68h-0.07l6.92 25.808 1.12-0.15c0.59-0.09 1.19-0.09 1.78 0l29.239 5.169 3.57 0.54-10.93-40.037z" fill="#fff"/>
<path d="m357.94 293.66-5.78-0.31c-0.482-0.025-0.953-0.149-1.384-0.364-0.432-0.215-0.814-0.517-1.124-0.887s-0.54-0.799-0.676-1.262c-0.136-0.462-0.176-0.948-0.116-1.426l0.36-3v-0.32l-0.33 0.32-8.52 8.259c-0.26 0.249-0.603 0.392-0.962 0.403-0.36 0.011-0.711-0.111-0.986-0.343-0.275-0.231-0.455-0.556-0.505-0.913-0.05-0.356 0.033-0.718 0.233-1.017l4.38-6.389 4.85-7.069c0.118-0.178 0.259-0.34 0.42-0.48l-0.83-1.55c-0.98-1.792-2.479-3.246-4.3-4.17-0.627-0.356-1.3-0.625-2-0.8h-0.21l-0.31-1.14c-0.028-0.104-0.075-0.203-0.14-0.29-0.082-0.114-0.188-0.21-0.311-0.281-0.122-0.071-0.258-0.114-0.399-0.129l-0.67-0.05-2.77-0.18-4.75-0.3c-1e-3 0.232-0.021 0.462-0.06 0.69l-0.06 0.23c0 0.16-0.09 0.32-0.15 0.49s-0.06 0.18-0.1 0.27c-0.104 0.236-0.221 0.466-0.35 0.69h-0.64c-1.216 2e-3 -2.411 0.323-3.464 0.932s-1.927 1.484-2.535 2.538l-3.13 5.999c0 0.05 0 0.11-0.07 0.16 0.274 0.1 0.538 0.223 0.79 0.37 0.701 0.473 1.297 1.084 1.753 1.796s0.761 1.51 0.897 2.344c0.172 0.836 0.26 1.687 0.26 2.54 0 2.81-0.82 4.949-2.31 6.149h48.478l-9.619-4.229c-0.029 0.736-0.344 1.432-0.878 1.94s-1.245 0.788-1.982 0.779z" fill="#fff"/>
<path d="m159.36 294.16 14.15 0.65c3.25 8e-3 6.478-0.529 9.55-1.59 0.683-0.25 1.39-0.431 2.11-0.54l14.869-2.199c0.314-0.048 0.634 0.012 0.909 0.171 0.275 0.158 0.488 0.405 0.604 0.7s0.129 0.621 0.036 0.924-0.287 0.565-0.549 0.744c-1.588 0.998-3.348 1.693-5.189 2.05h39.839l14.129-52.056h-76.578l-13.88 51.146zm35.47-42.486 1-3.35h34.789l-1 3.35-10.77 34.767h-34.789l10.77-34.767z" fill="#fff"/>
<path d="m381.54 239.72h-83.418l3.27 12.039 3.54 13.059 3.27 12.019h3.42l-5.85-21.559-3.33-12.259h76.578l10.87 40.057 1.78 0.27 1.79 0.27-11.92-43.896z" fill="#958B7B"/>
<path d="m377.67 298.22-3.38-1.49-0.22-0.1-3.53-1.55h-48.479c-0.194 0.158-0.401 0.299-0.62 0.42-0.801 0.439-1.707 0.65-2.62 0.61-0.335-7e-3 -0.67-0.04-1-0.1-0.176-0.03-0.358 3e-3 -0.513 0.092-0.155 0.09-0.274 0.23-0.337 0.398-0.01 0.08-0.01 0.16 0 0.24v3.13h-2.48v0.06h65.998v-0.06l0.11-0.36-2.779-1.23-0.15-0.06z" fill="#958B7B"/>
<path d="m155.98 294.01 1.69 0.08 1.69 0.07 13.879-51.136h76.578l-14.129 52.056h-39.939c-0.161 0.035-0.309 0.115-0.426 0.23-0.118 0.115-0.2 0.261-0.238 0.421-0.038 0.161-0.029 0.328 0.025 0.484 0.053 0.155 0.15 0.292 0.279 0.395 0.035 0.039 0.075 0.072 0.12 0.1l2.8 1.48 0.13 0.06 2.999 1.59 0.12 0.06h36.2l16.339-60.205h-83.388l-14.729 54.315z" fill="#958B7B"/>
<path d="m304.93 264.82c-0.35 4-0.74 8-1.11 12h4.38l-3.27-12z" fill="#F1F4E4"/>
<path d="m301.6 299.87v0.06h12.89v-0.06h-12.89z" fill="#F1F4E4"/>
<path d="m302.6 239.72c2.173-21.999 4.173-43.997 6-65.995 0.927-11.099 1.82-22.205 2.68-33.317-7.42-0.52-12.88-3.71-15.86-10.79-3.84-9.119 0.43-19.618-0.84-29.427-0.59-4.5299-2.35-8.8196-3.13-13.319-1.033-6.0282-0.275-12.227 2.18-17.829 1.8-4.0697 4.45-7.7294 6-11.899 1.55-4.1696 1.86-8.6693 3.21-12.879 0.19-0.6 0.4-1.1799 0.63-1.7599-8.873-0.8933-17.873-1.3432-26.999-1.3499v87.933c2.268 0.38 4.473 1.073 6.55 2.06 8.109 4.09 11.639 14.149 10.999 23.198-0.31 4.45-1.42 8.95-0.47 13.299 0.83 3.78 3.14 7.07 4.28 10.76 2.94 9.469-2.39 19.708-9.85 26.307 0.174 10.913 0.264 21.825 0.27 32.738 0 20.805-0.266 41.617-0.8 62.435h8.74c1.367-11.939 2.673-23.888 3.92-35.847 0.427-4.113 0.843-8.22 1.25-12.319l-3.27-11.999h4.51z" fill="#F1F4E4"/>
<path d="m523.33 207.16c-15.515-38.002-39.583-71.916-70.333-99.108-30.75-27.192-67.355-46.93-106.97-57.679 0.837 2.961 1.212 6.0338 1.11 9.1093-0.15 3.9996-1.18 7.9993-0.82 11.999 0.4 4.4197 2.47 8.5493 2.86 12.999 1 11.559-9.25 20.858-12.53 31.997-0.87 3-1.24 6.08-2.24 9-1.513 4.181-4.209 7.832-7.76 10.51-3.55 2.677-7.803 4.264-12.239 4.569-0.714 11.185-1.454 22.368-2.22 33.547-1.54 21.905-3.237 43.8-5.09 65.685h40.619c-0.811-1.808-1.817-3.521-3-5.11-2.31-3.33-5.4-6.129-7.23-9.739-1.306-2.658-1.888-5.614-1.686-8.569s1.18-5.804 2.836-8.26c2.65-3.83 6.83-6.409 9.49-10.229 3.13-4.51 3.88-10.349 7.06-14.819 5.099-7.149 15.089-9.139 20.879-15.729 2-2.319 3.47-5.109 5.44-7.469 6.5-7.779 18.999-10.179 28.999-11.539-3.15 5.3-0.64 11.999-0.24 18.118 0.394 6.392-1.605 12.702-5.61 17.699-2.23 2.77-5.07 5.1-6.76 8.229-1.999 3.72-2.179 8.12-2.999 12.269-1.16 5.76-3.86 11.45-8.63 14.869-4.12 2.95-9.48 4-13.19 7.45-3.17 2.929-4.7 7.199-7.31 10.649-0.59 0.775-1.238 1.504-1.94 2.18h17.68l11.92 43.896 4.62 0.7s19.209-42.736 34.249-43.836l4.779-0.34c0.285-2.111 0.375-4.243 0.27-6.37-0.2-3.35-1.13-6.649-3.77-7.779-7.349-3.12-7.779-4.63-7.099-11.999 0.56-4.15-2.75-3.84-2.58-6.26 0.14-2.18 2.59-4.489 3.47-9.219 4e-3 -0.02 4e-3 -0.04 0-0.06 0.06-0.53 0.13-1 0.23-1.56 0.295-1.618 0.761-3.2 1.39-4.72-0.35-0.14-0.685-0.314-1-0.52-2.49-1.699-2.93-5.209-2.51-8.189 0.35-2.44 1.13-4.839 1.15-7.319s-0.57-4.91 0.23-7.42c1-3.089 3.49-5.409 5.91-7.579l5.729-5.15c1.277-1.326 2.821-2.365 4.53-3.049 4.66-1.5 9.32 2.399 14.2 2.719 3.31 0.21 6.79-1.22 9.86 0 3.53 1.44 5 5.81 8.319 7.69 1.55 0.88 3.37 1.14 5 1.87 1.32 0.607 2.48 1.514 3.386 2.65 0.907 1.135 1.535 2.467 1.834 3.889 0.4 1.93 0.17 4 0.79 5.85 1.06 3.199 4.41 5.379 5 8.699 0.66 3.8-2.59 7.269-2.67 11.129 0 2.29 1 4.63 0.27 6.789-0.73 2.16-2.86 3.26-3.89 5.17-1.16 2.14-0.81 5-2.29 6.88-2.24 2.919-6.92 1.999-10.199 3.639-2.43 1.25-4.36 4.06-7.08 3.78-0.752-0.097-1.468-0.383-2.08-0.83-1.579 2.801-2.154 6.057-1.63 9.229l2.5-0.17c0.422-0.03 0.847 0.024 1.248 0.159 0.402 0.135 0.773 0.348 1.091 0.627 0.319 0.279 0.58 0.618 0.767 0.998s0.297 0.793 0.324 1.216v0.22c-2e-3 0.739-0.261 1.455-0.731 2.026-0.47 0.57-1.124 0.961-1.849 1.104 3.822-0.041 7.606 0.754 11.089 2.329 3.482 1.575 6.578 3.893 9.07 6.79l10.64-40.147 27.339-0.16z" fill="#F1F4E4"/>
<path d="m500.09 274.18c4.94-6.89 12.72-11.339 13.7-18.489h-22.439c3.574 5.828 6.505 12.028 8.739 18.489z" fill="#F1F4E4"/>
<path d="m537.87 255.69h-18c1.8 13.159 26.67 17.129 14.42 44.157h-5.92v0.08h14.39c-0.392-14.856-2.028-29.654-4.89-44.237z" fill="#F1F4E4"/>
<path d="m276.49 189.29v110.64h7.42c0.733-20.812 1.197-41.627 1.39-62.445 0.1-11.746 0.1-23.492 0-35.237l-8.81-12.959z" fill="#F1F4E4"/>
<path d="m184.06 286.44h5.919c2.52-3.12 7.39-8.729 10-8.909l1.17-0.09c0.218-0.488 0.395-0.993 0.53-1.51 0.2-0.81 0.22-1.59-0.32-1.86-1.53-0.75-1.52-1.11-0.81-2.88 0.44-1-0.37-0.91-0.15-1.49s1-1.07 1.51-2.2c0.041-0.081 0.078-0.164 0.11-0.25l0.06-0.119c0.201-0.4 0.435-0.781 0.7-1.14-0.075-0.027-0.145-0.064-0.21-0.11-0.47-0.4-0.31-1.24 0-1.95s0.63-1.16 0.82-1.75c0.114-0.616 0.316-1.212 0.6-1.77 0.54-0.73 1.22-1.345 2-1.81l1.74-1.23c0.398-0.308 0.839-0.554 1.31-0.73 1.22-0.35 2.05 0.58 3.19 0.65 0.77 0.05 1.71-0.29 2.35 0s0.77 1.38 1.42 1.83c0.342 0.168 0.692 0.318 1.05 0.45 0.273 0.149 0.494 0.379 0.632 0.658s0.186 0.594 0.138 0.902c-0.112 0.461-0.195 0.929-0.25 1.4 0 0.76 0.66 1.28 0.55 2.07s-1.16 1.74-1.46 2.659c-0.069 0.559-0.217 1.104-0.44 1.62-0.32 0.49-0.92 0.78-1.31 1.23s-0.55 1.18-1 1.64c-0.75 0.7-1.8 0.47-2.7 0.87-0.68 0.3-1.34 1-2 0.91-0.162-0.024-0.312-0.097-0.43-0.21-0.558 0.617-0.929 1.38-1.07 2.2h0.61c0.093-0.016 0.188-7e-3 0.276 0.025s0.166 0.087 0.226 0.159c0.061 0.071 0.102 0.158 0.119 0.25s0.01 0.187-0.021 0.276c-5e-3 0.016-5e-3 0.033 0 0.05-0.072 0.199-0.196 0.374-0.36 0.508s-0.361 0.221-0.57 0.252c0.87-0.076 1.743 0.107 2.509 0.525 0.767 0.418 1.393 1.053 1.801 1.825 0.991 2.232 1.476 4.657 1.42 7.099h5.15l10.76-34.787h-34.8l-10.769 34.737z" fill="#F1F4E4"/>
<path d="m208.89 276.25c-4e-3 -0.016-4e-3 -0.034 0-0.05 0.031-0.089 0.038-0.184 0.021-0.276s-0.058-0.179-0.118-0.25c-0.061-0.072-0.139-0.127-0.227-0.159s-0.183-0.041-0.276-0.025h-0.61c-0.057 0.492-0.057 0.988 0 1.48h0.31c0.2-0.032 0.387-0.115 0.545-0.242 0.158-0.126 0.28-0.291 0.355-0.478z" fill="#762812"/>
<path d="m207.66 277.01c-0.057-0.492-0.057-0.989 0-1.48l-6 0.42c-0.135 0.517-0.312 1.022-0.53 1.51l6.42-0.44 0.11-0.01z" fill="#762812"/>
<path d="m207.6 277.02-6.42 0.44 6.49-0.46-0.07 0.02z" fill="#762812"/>
<path d="m347.15 250.99-0.72-2.68h-34.79l0.91 3.36h34.78l-0.18-0.68z" fill="#79DEEE"/>
<path d="m194.82 251.67h34.78l1.04-3.36h-34.78l-1.04 3.36z" fill="#79DEEE"/>
<path d="m324.11 286.44c-0.135-0.834-0.44-1.632-0.896-2.344s-1.053-1.323-1.754-1.796c-0.251-0.147-0.516-0.27-0.79-0.37-0.906-0.323-1.878-0.419-2.83-0.28-0.11 0.016-0.223 8e-3 -0.33-0.023-0.107-0.032-0.206-0.086-0.29-0.159s-0.152-0.163-0.199-0.264c-0.046-0.102-0.07-0.212-0.071-0.324v-3.999h-17.529v22.998h17.529v-3.14c-0.01-0.079-0.01-0.16 0-0.24 0.063-0.168 0.182-0.308 0.337-0.398 0.155-0.089 0.337-0.122 0.513-0.092 0.331 0.06 0.665 0.093 1 0.1 0.913 0.04 1.819-0.171 2.62-0.61 0.219-0.121 0.427-0.262 0.62-0.42 1.49-1.2 2.31-3.339 2.31-6.149 3e-3 -0.836-0.077-1.67-0.24-2.49zm-3.63 7.479c-0.869 0.423-1.867 0.498-2.79 0.21-0.227-0.048-0.43-0.175-0.574-0.357-0.145-0.183-0.221-0.41-0.216-0.643v-8.669c0.011-0.22 0.094-0.431 0.237-0.599s0.338-0.285 0.553-0.331c0.936-0.246 1.931-0.124 2.78 0.34 0.359 0.222 0.669 0.514 0.91 0.86 0.355 0.51 0.616 1.079 0.77 1.68 0.215 0.815 0.316 1.657 0.3 2.5 0.04 2.43-0.7 4.229-1.96 4.959l-0.01 0.05z" fill="#F5987E"/>
<path d="m217.84 261.13c0.048-0.308 0-0.623-0.138-0.902s-0.359-0.509-0.632-0.658c-0.358-0.132-0.708-0.282-1.05-0.45-0.65-0.45-0.68-1.49-1.42-1.83s-1.58 0-2.35 0c-1.14-0.07-2-1-3.19-0.65-0.471 0.176-0.913 0.422-1.31 0.73l-1.74 1.23c-0.78 0.465-1.46 1.08-2 1.81-0.284 0.558-0.486 1.154-0.6 1.77-0.19 0.59-0.56 1.16-0.82 1.75s-0.48 1.55 0 1.95c0.065 0.046 0.135 0.083 0.21 0.11 0.182 0.094 0.373 0.171 0.57 0.23 0.41 0.107 0.782 0.329 1.07 0.64 0.162 0.22 0.27 0.474 0.317 0.743s0.031 0.545-0.047 0.806c0.171-0.201 0.384-0.361 0.625-0.47 0.24-0.109 0.501-0.163 0.765-0.16 0.143 5e-3 0.283 0.043 0.408 0.112 0.125 0.068 0.233 0.165 0.313 0.283 0.081 0.118 0.133 0.253 0.152 0.395 0.019 0.141 4e-3 0.285-0.043 0.42v0.06 0.11c-0.034 0.099-0.074 0.196-0.12 0.29-0.23 0.42-0.6 0.78-0.81 1.24-0.11 0.19-0.167 0.406-0.167 0.625 0 0.22 0.057 0.435 0.167 0.625 0.13 0.161 0.292 0.293 0.477 0.386 0.184 0.093 0.386 0.146 0.593 0.154 0.307-0.013 0.614 0.02 0.91 0.1 0.161 0.066 0.303 0.173 0.41 0.31 0.122 0.141 0.253 0.274 0.39 0.4 0.118 0.113 0.268 0.186 0.43 0.21 0.63 0.06 1.29-0.61 2-0.91 0.9-0.4 2-0.17 2.7-0.87 0.5-0.46 0.62-1.13 1-1.64s1-0.74 1.31-1.23c0.223-0.516 0.371-1.061 0.44-1.62 0.3-0.919 1.34-1.749 1.46-2.659s-0.53-1.31-0.55-2.07c0.063-0.462 0.153-0.919 0.27-1.37z" fill="#1D2226"/>
<path d="m410.38 459.84c-12.35-0.1-12.26 8.19-22.48 0.31v0.11l0.3 19.149h22.74l-0.56-19.569z" fill="#1D2226"/>
<path d="m404.96 396.34c-2.121 0-4.182-0.699-5.867-1.987-1.684-1.289-2.897-3.096-3.453-5.142l-0.58 0.12-2.94 57.425-0.37 7.23-3.6 0.14v0.72l22.42-1.15 1.38-0.07 0.71-57.286h-7.7z" fill="#56687A"/>
<path d="m387.9 460.26h-0.26c-12.14-0.16-12.18 8.049-22.369-0.12-9.15 19.069-22.86 4.39-28.25 19.289h51.179l-0.3-19.169z" fill="#38434F"/>
<path d="m408.57 345.56c-32.199 6.5-47.999 20.269-48.869 38.427l-3.559 71.325 10.409-0.39 9.81-0.36 11.58-0.44h0.21l3.6-0.14 0.37-7.23 2.94-57.425 0.58-0.12c-0.522-1.877-0.458-3.869 0.181-5.709 0.64-1.84 1.825-3.441 3.398-4.59 1.658-1.237 3.672-1.904 5.74-1.9h9.47l-5.79-31.098-0.07-0.35z" fill="#788FA5"/>
<path d="m443.41 358.11c-10.389 0-22.479-4.459-27.789-12.919v0.05l5.92 31.768h11.12c0.394-3e-3 0.788-0.027 1.18-0.07 2.424-0.263 4.693-1.324 6.448-3.016 1.756-1.693 2.9-3.92 3.251-6.333l1.38-9.48h-1.51z" fill="#788FA5"/>
<path d="m207.98 272.61c-0.297-0.08-0.604-0.114-0.91-0.1-0.207-9e-3 -0.409-0.062-0.594-0.155-0.184-0.093-0.347-0.224-0.476-0.385-0.11-0.191-0.168-0.406-0.168-0.625 0-0.22 0.058-0.435 0.168-0.625 0.21-0.46 0.58-0.82 0.81-1.24 0.046-0.095 0.086-0.191 0.12-0.29v-0.11-0.06c0.047-0.135 0.062-0.279 0.043-0.421s-0.071-0.277-0.152-0.395c-0.081-0.117-0.188-0.215-0.313-0.283-0.126-0.069-0.266-0.107-0.408-0.111-0.264-4e-3 -0.526 0.05-0.766 0.159s-0.453 0.27-0.624 0.471c0.077-0.262 0.093-0.538 0.046-0.807-0.046-0.269-0.155-0.523-0.316-0.743-0.289-0.311-0.66-0.533-1.07-0.64-0.197-0.059-0.388-0.136-0.57-0.23-0.265 0.359-0.5 0.74-0.7 1.14-0.013 0.038-0.03 0.075-0.05 0.11-0.033 0.085-0.069 0.168-0.11 0.25-0.56 1.13-1.32 1.68-1.51 2.2s0.59 0.51 0.15 1.49c-0.71 1.77-0.72 2.13 0.81 2.88 0.54 0.27 0.52 1.05 0.32 1.86l6-0.42c0.14-0.821 0.511-1.584 1.07-2.2-0.138-0.126-0.268-0.26-0.39-0.4-0.106-0.141-0.248-0.252-0.41-0.32z" fill="#955646"/>
<path d="m355.3 277.33-1.121 0.15-4.809 0.64c-0.574 0.072-1.109 0.324-1.53 0.72-0.161 0.14-0.302 0.302-0.42 0.48l-4.85 7.069-4.38 6.389c-0.2 0.299-0.284 0.661-0.233 1.017 0.05 0.357 0.23 0.682 0.505 0.913 0.275 0.232 0.626 0.354 0.985 0.343 0.36-0.011 0.703-0.154 0.963-0.403l8.52-8.259 0.33-0.32v0.32l-0.36 3c-0.06 0.478-0.02 0.964 0.116 1.426 0.136 0.463 0.366 0.892 0.676 1.262 0.309 0.37 0.692 0.672 1.123 0.887 0.432 0.215 0.903 0.339 1.385 0.364l5.779 0.31c0.384 0.024 0.769-0.032 1.131-0.162 0.362-0.131 0.693-0.334 0.974-0.597s0.505-0.58 0.659-0.933 0.234-0.733 0.236-1.117l9.62 4.229 3.53 1.55 0.22 0.1 3.38 1.49 0.16 0.06 2.78 1.23 0.39-1.23v-0.06l0.47-1.49v-0.1l0.49-1.55 4-12.589 0.34 0.05-29.24-5.169c-0.601-0.101-1.215-0.108-1.819-0.02z" fill="#955646"/>
<path d="m463.56 222.8c-0.72-0.48-1.389-1.11-2.089-1.68-0.634-0.567-1.362-1.021-2.15-1.34-1.291-0.301-2.615-0.442-3.94-0.42-1.939-0.126-3.773-0.921-5.19-2.25-0.696-0.67-1.225-1.494-1.544-2.406-0.32-0.911-0.421-1.885-0.296-2.843 0.31-1.89 1.39-3.43 1.81-5.17 0.147-0.598 0.197-1.216 0.15-1.83 5e-3 -0.069 5e-3 -0.14 0-0.21-0.075-1.14-0.505-2.228-1.231-3.111-0.725-0.882-1.71-1.515-2.814-1.809s-2.273-0.234-3.341 0.172c-1.069 0.406-1.983 1.136-2.614 2.089-0.243-2.416-1.376-4.655-3.18-6.28-1.559-1.279-3.377-2.204-5.33-2.71-0.928-0.232-1.84-0.526-2.73-0.88-0.628 1.52-1.094 3.102-1.39 4.72v0.09c-0.037 0.494-0.107 0.985-0.21 1.47 5e-3 0.02 5e-3 0.04 0 0.06-0.88 4.73-3.329 6.999-3.469 9.219-0.17 2.42 3.139 2.11 2.579 6.26-0.68 7.409-0.25 8.919 7.1 11.999 2.64 1.13 3.57 4.429 3.77 7.779l24.55-1.74c-0.534-3.148 0.016-6.384 1.559-9.179z" fill="#955646"/>
<path d="m543.24 315.33h-1.5v164.1h1.5v-164.1z" fill="#351A12"/>
<path d="m464.88 238.26c0.138-0.013 0.275-0.037 0.41-0.07 0.726-0.143 1.379-0.533 1.849-1.104 0.471-0.57 0.729-1.286 0.731-2.026v-0.22c-0.027-0.422-0.137-0.836-0.324-1.216s-0.447-0.719-0.766-0.998-0.69-0.492-1.091-0.627c-0.402-0.134-0.826-0.189-1.249-0.159l-2.5 0.17-24.55 1.74c0.105 2.127 0.015 4.26-0.27 6.37v0.09l26.63-1.89 1.13-0.06z" fill="#351A12"/>
<path d="m530.67 315.33-1.12-7.7-1.12-7.699v-0.08l-0.65-4.5c-0.536-3.693-2.385-7.07-5.207-9.513-2.823-2.442-6.43-3.786-10.163-3.786h-42.999c-3.732 0-7.34 1.344-10.162 3.786-2.823 2.443-4.671 5.82-5.207 9.513l-0.66 4.58-1.12 7.699-1.12 7.7-2.31 15.858h-29.679c-1.616-3e-3 -3.213 0.35-4.677 1.033-1.464 0.684-2.76 1.682-3.795 2.923-1.035 1.24-1.783 2.694-2.193 4.257-0.409 1.563-0.469 3.198-0.175 4.786l0.25 1.34 0.07 0.35 5.79 31.098h-9.47c-2.561 5e-3 -5.016 1.024-6.828 2.834s-2.834 4.264-2.842 6.825c0.011 2.561 1.033 5.015 2.844 6.826s4.265 2.833 6.826 2.843h108.1c3.648 0 7.254-0.786 10.572-2.304 3.317-1.517 6.27-3.73 8.656-6.49 2.387-2.759 4.152-5.999 5.175-9.501 1.024-3.501 1.282-7.182 0.756-10.792l-7.539-51.886zm-115 29.917v-0.05l-0.16-0.87-0.25-1.379c-0.114-0.585-0.095-1.188 0.055-1.765 0.149-0.577 0.426-1.113 0.809-1.569 0.384-0.456 0.864-0.821 1.407-1.068 0.542-0.247 1.133-0.369 1.729-0.358h28.669l-0.44 2.25-2.57 17.698-1.38 9.48c-0.352 2.413-1.495 4.64-3.251 6.333-1.756 1.692-4.024 2.753-6.449 3.016-0.392 0.043-0.785 0.067-1.18 0.07h-11.119l-5.87-31.788z" fill="#351A12"/>
<path d="m471.92 400.88v39.567h6v-39.567h-6z" fill="#A0B4B7"/>
<path d="m480.94 451.84v-11.409h-11.999v11.399l-31.049 10.689v5.84c0.407 0 0.813 0.047 1.21 0.14l32.389-10.78 1.66 10.949c1.168-0.413 2.442-0.413 3.61 0l1.66-10.949 32.399 10.78c0.393-0.093 0.796-0.14 1.2-0.14v-5.84l-31.08-10.679z" fill="#BFD3D6"/>
<path d="m491.49 186.25c-0.57-3.32-3.92-5.5-5-8.699-0.62-1.87-0.39-3.92-0.79-5.85-0.3-1.422-0.928-2.754-1.834-3.889-0.906-1.136-2.066-2.043-3.386-2.65-1.63-0.73-3.45-1-5-1.87-3.32-1.88-4.79-6.25-8.32-7.69-3.07-1.24-6.55 0.19-9.86 0-4.879-0.32-9.539-4.219-14.199-2.719-1.709 0.684-3.253 1.723-4.53 3.049l-5.73 5.15c-2.42 2.17-4.93 4.49-5.91 7.579-0.8 2.51-0.21 4.89-0.23 7.42-0.02 2.529-0.8 4.879-1.15 7.319-0.42 3 0 6.49 2.51 8.189 0.316 0.206 0.651 0.38 1 0.52 0.89 0.354 1.802 0.648 2.73 0.88 1.952 0.506 3.771 1.431 5.33 2.71 1.803 1.625 2.937 3.864 3.18 6.28 0.631-0.953 1.545-1.683 2.613-2.089 1.069-0.406 2.237-0.466 3.342-0.172 1.104 0.294 2.088 0.927 2.814 1.809 0.726 0.883 1.156 1.971 1.231 3.111 5e-3 0.07 5e-3 0.14 0 0.21 0.047 0.614-3e-3 1.232-0.15 1.83-0.42 1.74-1.5 3.28-1.81 5.17-0.125 0.958-0.024 1.932 0.295 2.843 0.32 0.912 0.849 1.736 1.545 2.406 1.416 1.329 3.251 2.124 5.189 2.25 1.326-0.022 2.649 0.119 3.94 0.42 0.789 0.319 1.516 0.773 2.15 1.34 0.7 0.57 1.37 1.2 2.09 1.68 0.613 0.447 1.328 0.733 2.08 0.83 2.72 0.28 4.65-2.53 7.08-3.78 3.28-1.68 8-0.72 10.2-3.639 1.48-1.93 1.13-4.74 2.29-6.88 1-1.91 3.18-3.12 3.89-5.17 0.71-2.049-0.32-4.499-0.27-6.789 0.09-3.84 3.34-7.309 2.67-11.109z"/>
<path d="m468.71 400.88h12.42v-4.54h-12.42v4.54z"/>
<path d="m476.72 468.66c-1.168-0.414-2.442-0.414-3.61 0-1.236 0.426-2.281 1.278-2.949 2.402-0.669 1.125-0.916 2.45-0.7 3.74 0.217 1.29 0.883 2.461 1.882 3.306 0.998 0.845 2.264 1.309 3.572 1.309s2.574-0.464 3.572-1.309c0.999-0.845 1.665-2.016 1.882-3.306 0.216-1.29-0.032-2.615-0.7-3.74-0.668-1.124-1.713-1.976-2.949-2.402z"/>
<path d="m511.98 468.36c-0.404 0-0.806 0.047-1.2 0.14-1.37 0.315-2.568 1.143-3.346 2.314-0.779 1.172-1.079 2.596-0.84 3.982 0.24 1.386 1.001 2.627 2.127 3.469 1.127 0.842 2.533 1.22 3.93 1.057s2.678-0.854 3.581-1.933c0.902-1.078 1.357-2.462 1.271-3.865-0.085-1.404-0.706-2.722-1.733-3.682-1.027-0.961-2.383-1.491-3.79-1.482z"/>
<path d="m439.06 468.5c-0.397-0.093-0.803-0.14-1.21-0.14-1.422-8e-3 -2.792 0.529-3.83 1.501s-1.664 2.304-1.75 3.723c-0.086 1.42 0.375 2.818 1.289 3.907 0.913 1.09 2.209 1.788 3.622 1.952 1.412 0.163 2.834-0.221 3.972-1.073s1.906-2.108 2.147-3.51c0.24-1.401-0.065-2.841-0.854-4.024-0.788-1.183-2-2.019-3.386-2.336z"/>
<path d="m187.18 155.24c4.632 0 9.074 1.839 12.35 5.113s5.117 7.715 5.12 12.346h9.14v-30.108h-44.069v30.108c0-4.63 1.839-9.071 5.114-12.345 3.274-3.274 7.715-5.114 12.345-5.114z" fill="#C37D16"/>
<path d="m416.07 339.64c-0.379 0.454-0.653 0.986-0.802 1.558-0.148 0.572-0.168 1.171-0.058 1.751l0.25 1.38 0.16 0.87c5.31 8.46 17.399 12.919 27.789 12.919h1.52l2.56-17.678 0.33-2.23h-28.669c-0.587-2e-3 -1.167 0.125-1.7 0.372-0.532 0.247-1.003 0.608-1.38 1.058z" fill="#E7A33E"/>
<path d="m500.09 274.18c-2.235-6.461-5.165-12.661-8.74-18.489-1.618-2.638-3.38-5.185-5.28-7.629-0.2-0.26-0.41-0.5-0.62-0.75-2.492-2.897-5.588-5.215-9.07-6.79-3.483-1.575-7.267-2.37-11.089-2.329-0.135 0.033-0.272 0.056-0.41 0.07l-1.16 0.08-26.629 1.89v-0.09l-4.78 0.34c-15 1.1-34.249 43.836-34.249 43.836l-4.62-0.7-1.79-0.27-1.78-0.27-3.57-0.54-0.34-0.05-4 12.589-0.49 1.55v0.1l-0.47 1.49v0.06l-0.39 1.23-0.11 0.36v0.06l-2.42 7.669h0.11l13.43 4.19c10.849 3.1 14.299 4.52 21.549 2.59 1-0.26 1.52-0.47 1.52-0.47l-0.11 1.39-1.45 17.678c1.795-1.185 3.899-1.818 6.05-1.82h29.679l2.31-15.858 1.12-7.7 1.12-7.699 0.66-4.58c0.536-3.693 2.384-7.07 5.207-9.513 2.822-2.442 6.43-3.786 10.163-3.786h33.049c-0.667-2.639-1.467-5.253-2.4-7.839z" fill="#E7A33E"/>
<path d="m169.72 108.21v8.629l32.149 13.299v-21.928h-32.149z" fill="#E7A33E"/>
<path d="m294.46 410.51h-17.97v68.895l9.74-0.31 28.199 0.31 9.89-68.895h-29.859z" fill="#FFEFEA"/>
<path d="m162.34 197.32h84.238v-109.44h-84.238v109.44zm7.38-24.618v-77.674h69.468v95.143h-69.468v-17.469z" fill="#FFEFEA"/>
<path d="m193.06 172.7c0-1.164-0.345-2.303-0.993-3.272-0.647-0.968-1.567-1.723-2.643-2.169s-2.26-0.563-3.403-0.335c-1.142 0.227-2.192 0.788-3.016 1.612-0.823 0.823-1.384 1.873-1.612 3.015-0.227 1.143-0.11 2.327 0.335 3.403 0.446 1.077 1.201 1.997 2.17 2.644 0.968 0.647 2.107 0.992 3.272 0.992 1.562 0 3.06-0.62 4.165-1.725 1.105-1.104 1.725-2.602 1.725-4.165z" fill="#FFEFEA"/>
<path d="m213.78 130.14h-22.03v3.37h22.03v-3.37z" fill="#FFEFEA"/>
<path d="m10.17 299.93h24.129l-1.9099-7.23c-1.106-3.735-0.9868-7.726 0.3399-11.389-0.71-5.529 0.25-10.949 3.8699-15.518l16.06-20.249c2.8116-3.542 6.3595-6.431 10.398-8.467 4.0386-2.035 8.4714-3.169 12.991-3.322h2.19c2.4599-2.92 3.9999-5.509 4.5999-8.079 0.9999-4.07-0.27-8.08-3.5699-13.259l-1.67-2.5-0.37-0.53-0.16-0.21c-1.9513-2.705-3.289-5.804-3.9199-9.079l-0.06-0.4c-0.07-0.41-0.14-0.82-0.19-1.24s-0.09-0.9-0.11-1.35v-0.36-0.05-1.5c-5e-3 -0.063-5e-3 -0.127 0-0.19v-0.29-0.62-0.55c0-0.18 0-0.41 0.07-0.61s0-0.37 0.07-0.56l0.09-0.56c0-0.2 0.07-0.4 0.11-0.59s0.07-0.35 0.11-0.519c0.04-0.17 0.09-0.41 0.15-0.62 0.0306-0.156 0.0707-0.31 0.12-0.46l0.18-0.65 0.14-0.42c0.07-0.22 0.15-0.44 0.23-0.66s0.09-0.26 0.14-0.39l0.26-0.66 0.17-0.38c0.09-0.21 0.1899-0.42 0.2899-0.63s0.12-0.27 0.19-0.4l0.3-0.58 0.2401-0.43c0.09-0.17 0.1899-0.34 0.2899-0.51l0.3-0.48 0.27-0.42 0.38-0.56 0.22-0.3 0.49-0.65 0.14-0.18c0.2-0.25 0.4099-0.49 0.6199-0.73l0.05-0.06c2.0469-2.338 4.5466-4.238 7.3481-5.583 2.8015-1.346 5.8466-2.11 8.9516-2.246 0.7526-0.045 1.5072-0.045 2.2598 0 2.397 0.126 4.7594 0.629 6.9994 1.49 6-6.22 14.53 2.55 10.52 7.799l-0.13 0.15c0.856 1.173 1.603 2.421 2.23 3.73 0.936 1.969 1.58 4.064 1.91 6.219v0.05c0.029 0.541 0.096 1.079 0.2 1.61v0.06c0.79 4.68 3.16 7 3.26 9.21 0.09 2.419-3.21 1.999-2.74 6.189 0.5 7.429 0.06 7.709-7.35 10.709-2.44 1-3.52 3.18-3.87 5.69-0.078 0.55-0.122 1.104-0.13 1.66l2.27 0.14c0.609 0.042 1.179 0.313 1.596 0.758s0.651 1.031 0.654 1.641v3.88c0.235 0.023 0.466 0.069 0.69 0.14 2.399 0.619 4.654 1.699 6.64 3.18 4.953 3.147 8.549 8.034 10.08 13.699l11.41 42.566 14.709 0.67 14.73-54.285h83.418l-16.34 60.205h38.769v-258.67c-144.58 0-262.25 115.15-266.32 258.73zm147.77-216.47h92.998v118.26h-92.998v-118.26z" fill="#FCE2BA"/>
<path d="m537.62 207.16h-41.529l-10.6 40.147c0.21 0.25 0.42 0.49 0.62 0.75 1.9 2.444 3.663 4.991 5.28 7.629h59.099l-12.87-48.526z" fill="#FCE2BA"/>
<path d="m346.9 251.67h-34.349l8.09 30.197c0-0.05-1e-3 -0.11 0.069-0.16l3.13-5.999c0.609-1.054 1.483-1.929 2.536-2.538s2.248-0.93 3.464-0.932h0.64c0.129-0.224 0.246-0.454 0.35-0.69 0-0.09 0.07-0.18 0.1-0.27s0.11-0.33 0.15-0.49l0.06-0.23c0.039-0.228 0.059-0.458 0.06-0.69 0-1.22-0.74-2.42-2.16-3.999l-0.48-0.5-0.32-0.34-0.16-0.18-0.21-0.22c-0.033-0.038-0.063-0.078-0.09-0.12-0.16-0.18-0.31-0.37-0.45-0.56l-0.23-0.33c-0.12-0.18-0.23-0.35-0.33-0.53s-0.16-0.29-0.23-0.44c-0.086-0.159-0.163-0.322-0.23-0.49-0.07-0.17-0.14-0.33-0.2-0.5s-0.07-0.17-0.09-0.25-0.07-0.25-0.1-0.38v-0.13-0.09c0-0.03 0-0.24-0.07-0.36s0-0.22 0-0.33v-0.33-0.33-0.31-0.33-0.29c0.015-0.107 0.035-0.214 0.06-0.32 0.018-0.094 0.041-0.188 0.07-0.28 0.021-0.098 0.048-0.195 0.08-0.29 0.031-0.099 0.068-0.195 0.11-0.29 0.029-0.085 0.063-0.168 0.1-0.25 0.05-0.11 0.11-0.21 0.16-0.31l0.11-0.18c0.071-0.117 0.148-0.23 0.23-0.34l0.09-0.12c0.099-0.123 0.206-0.24 0.32-0.35v-0.06l0.41-0.35c0.879-0.623 1.923-0.971 3-0.999h0.66c0.744 0.047 1.478 0.199 2.18 0.449 1.28-1.839 4.48 0.74 3.71 2.29v0.05c0.361 0.338 0.695 0.702 1 1.09 0.424 0.567 0.779 1.181 1.06 1.83 0.06 0.17 0.12 0.33 0.19 0.48 0.08 0.18 0.16 0.34 0.24 0.5 0.58 1.06 1.27 1.66 1.45 2.22s-0.79 0.59-0.32 1.82c0.73 2.179 0.63 2.269-1.32 3.149-0.64 0.29-0.78 0.94-0.69 1.68 0.025 0.162 0.058 0.322 0.1 0.48l0.67 0.05c0.141 0.015 0.277 0.058 0.399 0.129s0.228 0.167 0.311 0.281c0.065 0.087 0.112 0.186 0.14 0.29l0.31 1.14h0.21c0.7 0.175 1.373 0.444 2 0.8 1.821 0.924 3.32 2.378 4.3 4.17l0.83 1.55c0.421-0.396 0.957-0.648 1.53-0.72l4.81-0.64-6.92-25.808h-0.54z" fill="#FCE2BA"/>
<path d="m388.15 454.13h-0.21l-11.58 0.44-9.809 0.36c-0.73 3.339-1.28 5.209-1.28 5.209 10.189 8.17 10.229 0 22.369 0.12h0.26v-0.11c10.22 7.88 10.13-0.41 22.479-0.31l0.16-6.139-22.419 1.15 0.03-0.72z" fill="#FCE2BA"/>
<path d="m213.78 172.7v17.469h25.4v-34.928h-25.4v17.459z" fill="#FCE2BA"/>
<path d="m187.18 155.24c-3.456 0-6.834 1.025-9.707 2.945s-5.112 4.649-6.434 7.841c-1.322 3.193-1.667 6.706-0.993 10.095 0.675 3.388 2.34 6.501 4.784 8.944 2.444 2.442 5.558 4.105 8.948 4.778 3.389 0.673 6.902 0.326 10.094-0.998s5.92-3.564 7.838-6.438 2.941-6.253 2.939-9.708c0-2.294-0.452-4.565-1.33-6.683-0.878-2.119-2.165-4.044-3.787-5.666-1.622-1.621-3.548-2.907-5.668-3.784-2.119-0.876-4.391-1.327-6.684-1.326zm0 23.349c-1.165 0-2.304-0.346-3.273-0.993-0.968-0.647-1.723-1.567-2.169-2.643s-0.562-2.261-0.335-3.403 0.788-2.192 1.612-3.016c0.824-0.823 1.873-1.384 3.016-1.611 1.142-0.228 2.326-0.111 3.403 0.335 1.076 0.446 1.996 1.2 2.643 2.169 0.647 0.968 0.992 2.107 0.992 3.272 0 1.562-0.62 3.06-1.725 4.165-1.104 1.104-2.602 1.725-4.164 1.725z" fill="#FCE2BA"/>
<path d="m201.86 108.22c9.91 11.279 27.349 21.928 22.999 34.367h13.94l0.36-47.566h-43.669c0 4.5697 2.63 8.9289 6.37 13.199z" fill="#FCE2BA"/>
<path d="m120.37 378.9h-4.7c-1.191-1e-3 -2.348 0.401-3.282 1.139-0.935 0.739-1.593 1.771-1.868 2.93l-0.82 3.46-3.719 72.304h36.519l-18-75.874c-0.234-0.987-0.748-1.886-1.481-2.589-0.732-0.702-1.652-1.178-2.649-1.37z" fill="#211F1C"/>
<path d="m146.78 439.43-0.89-60.505h-10.89c0.033 0.115 0.059 0.232 0.08 0.35l11.7 60.155z" fill="#211F1C"/>
<path d="m153.04 471.61 1.52 7.79h-7.18l-2.44-10.28c-4.17-1.759-8.22-4.409-10.81-8.399-6 2.86-8.58 6.44-8.58 6.44-5.62 0-11.889-3-12.289-3.19-1.085 5.235-0.505 10.679 1.66 15.569l46.388-0.05-0.86-6.88c-2.491-0.143-4.969-0.477-7.409-1z" fill="#1B2416"/>
<path d="m209.58 472.51c-2.274-0.12-4.537-0.407-6.77-0.86l1.5 7.75h6.12l-0.85-6.89z" fill="#1B2416"/>
<path d="m183.28 460.64c-6.06 2.85-8.579 6.43-8.579 6.43-5.62 0-11.9-3-12.29-3.19-1.086 5.227-0.513 10.663 1.64 15.549h33.089l-2.4-10.09c-4.39-1.779-8.74-4.499-11.46-8.699z" fill="#1B2416"/>
<path d="m169.08 378.9h-23.189l0.89 60.505 2.72 13.789 1.07 5.519h41.699l-18-75.744c-0.276-1.166-0.94-2.203-1.883-2.942-0.943-0.74-2.109-1.137-3.307-1.127z" fill="#474139"/>
<path d="m65.108 360.82h52.629l-4.31-16.299c-13.93 6.91-27.299 13.819-48.319 16.299z" fill="#474139"/>
<path d="m180.36 364.86c-2.222 1.178-4.631 1.966-7.12 2.33 2.902 0.705 5.54 2.227 7.603 4.385 2.063 2.159 3.464 4.863 4.037 7.794l8.49 43.706-0.5-53.426c0-13.619-1.68-22.638-13-26.548l-40.449-9.419c-5.63 1.736-11.138 3.844-16.489 6.31l5.57 20.828h50.838c0.474 9e-3 0.931 0.174 1.302 0.469 0.37 0.294 0.634 0.703 0.75 1.162s0.077 0.943-0.109 1.379c-0.186 0.435-0.511 0.797-0.923 1.03z" fill="#474139"/>
<path d="m333.36 254.76c-0.751-0.273-1.541-0.425-2.34-0.451-1.26-0.082-2.51 0.271-3.54 1l-0.41 0.35v0.06c-0.114 0.11-0.221 0.227-0.32 0.351l-0.09 0.119c-0.082 0.11-0.159 0.223-0.23 0.34l-0.11 0.18c0 0.1-0.11 0.2-0.16 0.31-0.037 0.082-0.071 0.165-0.1 0.25-0.043 0.095-0.079 0.192-0.11 0.29-0.032 0.095-0.059 0.192-0.08 0.291-0.029 0.091-0.052 0.185-0.07 0.279-0.026 0.106-0.046 0.213-0.06 0.321v0.289 0.331 0.309 0.33 0.331 0.329c0 0.11 0 0.241 0.07 0.361s0 0.06 0 0.09v0.13c0.05 0.21 0.12 0.42 0.19 0.63s0.13 0.33 0.2 0.5c0.067 0.167 0.143 0.331 0.23 0.49 0.07 0.15 0.15 0.3 0.23 0.44s0.21 0.35 0.33 0.53l0.23 0.329c0.14 0.19 0.29 0.38 0.45 0.56 0.027 0.043 0.057 0.083 0.09 0.12l0.21 0.22 0.16 0.17 0.08 0.08c0.09 0.1 0.19 0.201 0.28 0.311l0.48 0.5 0.1 0.109c0.083 0.012 0.167 0.012 0.25 0 1.65 0.2 2.61-0.419 2.2-2.609 4e-3 -0.07 4e-3 -0.141 0-0.211-0.06-0.27-0.14-0.56-0.23-0.87-0.031-0.075-0.058-0.151-0.08-0.23 6e-3 -0.023 6e-3 -0.046 0-0.069h-0.35c-0.062-3e-3 -0.122-0.025-0.172-0.062-0.05-0.038-0.088-0.089-0.108-0.149-0.01-0.025-0.013-0.053-9e-3 -0.08 3e-3 -0.028 0.013-0.054 0.029-0.077 0.015-0.022 0.036-0.041 0.061-0.053 0.024-0.013 0.052-0.02 0.079-0.019h0.45c0.014-0.154 0.058-0.304 0.13-0.441s0.17-0.258 0.289-0.356c0.119-0.099 0.257-0.173 0.404-0.218 0.148-0.045 0.303-0.061 0.457-0.045 0.338 0.028 0.665 0.132 0.956 0.306 0.291 0.173 0.539 0.41 0.724 0.694h1c-0.651-1.444-1.787-2.615-3.21-3.31-1.75-0.73-1.2-2.43 0.16-1.81s4.09 2.149 4.9 0.719v-0.05c0.84-1.5-2.36-4.079-3.64-2.239z" fill="#B24020"/>
<path d="m335.41 261.96h-0.92l0.07 0.13v0.07l0.14 0.27c0.059 0.12 0.155 0.218 0.274 0.28 0.119 0.061 0.254 0.082 0.386 0.06 0.24-0.06 0.32-0.31 0.2-0.57l-0.15-0.24z" fill="#B24020"/>
<path d="m104.01 174.21c-4.3894-1.677-9.1873-1.97-13.748-0.838-4.5607 1.132-8.6652 3.633-11.762 7.167l-0.0499 0.06c-0.21 0.24-0.42 0.48-0.62 0.73l-0.14 0.18-0.49 0.65-0.22 0.3-0.38 0.56-0.27 0.42-0.3 0.48c-0.1 0.17-0.2 0.34-0.29 0.51l-0.24 0.43-0.3 0.58c-0.07 0.13-0.13 0.27-0.19 0.4s-0.2 0.42-0.29 0.63l-0.17 0.38-0.26 0.66c0 0.13-0.0999 0.26-0.1399 0.39s-0.1601 0.44-0.2301 0.66l-0.1399 0.42-0.1801 0.65c-0.0493 0.15-0.0893 0.304-0.1199 0.46-0.06 0.21-0.11 0.41-0.15 0.62s-0.0801 0.34-0.1101 0.52-0.0799 0.39-0.1099 0.59l-0.09 0.559c0 0.19-0.05 0.37-0.07 0.56s0 0.41-0.07 0.61 0 0.36 0 0.55v0.62 0.29c-5e-3 0.063-5e-3 0.127 0 0.19v1.5 0.05 0.36c0 0.45 0.05 0.9 0.11 1.35s0.12 0.83 0.19 1.24l0.06 0.4c0.5363 2.692 1.5524 5.266 2.9999 7.599 0 0 0 0.08 0.07 0.12l0.9099 1.35 0.2701 0.4 0.2399 0.35 1.67 2.5 0.09 0.13c0.257 0.089 0.5282 0.13 0.8 0.12h0.06c5.4198 0.7 9.2697-1.38 9.8697-8.859 0-0.24 1e-4 -0.46 0.0601-0.71 0.05-0.9 0.05-1.86 0-2.91-0.0249-0.28-0.0249-0.561 0-0.84 0.0049-0.073 0.0049-0.147 0-0.22h-1.17c-0.1989 0-0.3897-0.079-0.5304-0.22-0.1406-0.14-0.2196-0.331-0.2196-0.53s0.079-0.39 0.2196-0.53c0.1407-0.141 0.3315-0.22 0.5304-0.22h1.54c0.3769-1.028 1.0527-1.92 1.9404-2.561 0.8878-0.641 1.9469-1.002 3.0414-1.036 1.0944-0.034 2.1742 0.259 3.1004 0.843 0.9263 0.584 1.6564 1.432 2.0974 2.434l3.4-0.11c-1.59-5.759-4.08-9.519-7.8998-11.249-5.2699-2.47-1.86-8.259 2.2199-6.14 4.0799 2.12 11.93 7.31 16 2.43l0.06-0.08 0.13-0.15c3.76-5.249-4.69-14.019-10.73-7.799z" fill="#B24020"/>
<path d="m104.43 198.69-2 0.07h-1.3l0.12 0.44 0.07 0.24 0.24 0.91c0.123 0.39 0.39 0.72 0.747 0.92 0.357 0.201 0.777 0.258 1.174 0.16 0.398-0.099 0.743-0.344 0.966-0.688 0.222-0.344 0.306-0.759 0.233-1.162-0.1-0.28-0.18-0.58-0.25-0.89z" fill="#B24020"/>
<path d="m112.69 458.72 0.559 5.25c0.4 0.19 6.67 3.19 12.29 3.19 0 0 2.53-3.58 8.58-6.44-0.411-0.641-0.778-1.309-1.099-2h-20.33z" fill="#9DB3C8"/>
<path d="m182.22 458.72h-20.37l0.55 5.15c0.39 0.19 6.67 3.2 12.29 3.19 0 0 2.52-3.58 8.58-6.43-0.391-0.613-0.742-1.251-1.05-1.91z" fill="#9DB3C8"/>
<path d="m48.008 361.07c0.3077-0.164 0.6512-0.25 1-0.25h1.38l-3.2599-12.329c-0.0454 4.21 0.2489 8.417 0.8799 12.579z" fill="#9DB3C8"/>
<path d="m110.35 332.9-4.65-17.578-2-7.7-1.67-6.189h-56.588l1.6399 6.189 2 7.7 4.2499 16.048 7.7998 29.448h3.9999c20.999-2.48 34.419-9.439 48.319-16.299l-3.1-11.619z" fill="#9DB3C8"/>
<path d="m172.75 319.44 0.12-4.079 0.24-7.7v-0.68l0.22-6.999v-1.71l0.05-1.49v-1.91l-14.15-0.65-1.69-0.07-1.69-0.08-14.709-0.67-11.41-42.566c-1.531-5.665-5.127-10.552-10.08-13.699-1.986-1.481-4.241-2.561-6.64-3.18-0.224-0.071-0.455-0.117-0.69-0.14v-3.88c-3e-3 -0.609-0.237-1.196-0.654-1.641s-0.987-0.716-1.596-0.758l-2.27-0.14-25.089-1.66c-0.62 2.57-2.14 5.159-4.5999 8.079h-2.1899c-4.5201 0.153-8.9528 1.287-12.991 3.322-4.0386 2.036-7.5864 4.925-10.398 8.467l-15.93 20.189c-3.6199 4.569-4.5799 9.999-3.8699 15.518 2.1999-5.669 7.6098-9.429 14.9-9.429h36.369c11.49 0 23.309 9.329 26.389 20.818l0.63 2.38 0.44 1.65 0.4 1.49 0.43 1.65v0.06l2 7.699 2 7.7 4.74 17.868 1.8 6.8c5.351-2.466 10.86-4.574 16.49-6.31l-2.13-14.999c1.321 0.233 2.658 0.36 4 0.38l31.559 0.37z" fill="#9DB3C8"/>
<path d="m339.08 262.1-0.16-0.47-0.44-1.34-0.13-0.38c-0.018-0.06-0.055-0.112-0.106-0.148s-0.112-0.055-0.174-0.052c-0.028-1e-3 -0.055 5e-3 -0.08 0.018s-0.045 0.031-0.06 0.055c-0.016 0.023-0.024 0.049-0.026 0.077s4e-3 0.055 0.016 0.08l0.17 0.52 0.32 1-2.56 0.08h-1.67c0.057 0.079 0.107 0.162 0.15 0.25 0.036 0.06 0.066 0.124 0.09 0.19h0.99l3.15-0.1 0.28 0.85 0.21 0.64c0.019 0.058 0.055 0.108 0.103 0.146 0.048 0.037 0.106 0.059 0.167 0.064 0.026-1e-3 0.053-8e-3 0.076-0.021 0.023-0.014 0.043-0.033 0.056-0.056 0.014-0.023 0.022-0.049 0.024-0.075 1e-3 -0.027-5e-3 -0.054-0.016-0.078l-0.38-1.25z" fill="#fff"/>
<path d="m330.77 261.66c-0.028 0-0.055 6e-3 -0.08 0.019-0.024 0.013-0.045 0.031-0.061 0.054-0.016 0.022-0.026 0.049-0.029 0.076-4e-3 0.027 0 0.055 0.01 0.081 0.02 0.059 0.057 0.111 0.107 0.148 0.05 0.038 0.11 0.059 0.173 0.062h0.35c-0.02-0.146-0.02-0.294 0-0.44h-0.47z" fill="#fff"/>
<path d="m116.65 197.56-0.29-4.55-0.07-1.27c-0.016-0.198-0.108-0.384-0.257-0.516s-0.344-0.202-0.543-0.193c-0.099 6e-3 -0.195 0.032-0.284 0.075-0.089 0.044-0.168 0.105-0.233 0.179s-0.114 0.161-0.146 0.254c-0.031 0.094-0.044 0.193-0.037 0.291l0.11 1.78 0.2 3.24-8.76 0.28-2.31 0.07-3.4 0.11c0.13 0.297 0.234 0.605 0.31 0.92 0.047 0.188 0.084 0.378 0.11 0.57h1.3l2-0.07 10.76-0.34 0.39 5.06c0.012 0.191 0.096 0.37 0.235 0.502 0.139 0.131 0.323 0.205 0.515 0.208 0.098-7e-3 0.194-0.033 0.283-0.076 0.089-0.044 0.168-0.105 0.233-0.179s0.115-0.161 0.146-0.254c0.032-0.094 0.044-0.193 0.038-0.291l-0.35-5.77 0.05-0.03z" fill="#fff"/>
<path d="m88.188 198.45c0.0013 0.097 0.0217 0.193 0.0601 0.282 0.0384 0.09 0.094 0.171 0.1637 0.238 0.0696 0.068 0.1519 0.122 0.2422 0.158s0.1868 0.053 0.284 0.052h1.1699c0.039-0.515 0.1466-1.023 0.3201-1.51h-1.54c-0.0973 5e-3 -0.1925 0.029-0.2804 0.071-0.0878 0.042-0.1665 0.101-0.2315 0.174-0.0651 0.072-0.1151 0.157-0.1474 0.249-0.0323 0.091-0.0461 0.189-0.0407 0.286z" fill="#fff"/>
<path d="m325.94 261.44c0 0.08 0.06 0.16 0.09 0.25-0.07-0.21-0.14-0.42-0.19-0.63 0.03 0.08 0.06 0.2 0.1 0.38z" fill="#F0B5A5"/>
<path d="m333.35 254.77c-0.702-0.251-1.435-0.403-2.179-0.45h-0.681c-0.17 0-0.32 0-0.47 0.06 0.332-0.045 0.666-0.061 1-0.05 0.795 0.023 1.582 0.172 2.33 0.44z" fill="#F0B5A5"/>
<path d="m328.19 254.91c-0.252 0.131-0.492 0.282-0.72 0.45 0.228-0.168 0.468-0.319 0.72-0.45z" fill="#F0B5A5"/>
<path d="m328.32 254.86-0.13 0.05 0.13-0.05z" fill="#F0B5A5"/>
<path d="m329.02 254.58c-0.24 0.075-0.474 0.168-0.7 0.28 0.224-0.116 0.459-0.21 0.7-0.28z" fill="#F0B5A5"/>
<path d="m329.95 254.38c-0.274 0.033-0.545 0.086-0.81 0.16 0.265-0.074 0.536-0.127 0.81-0.16z" fill="#F0B5A5"/>
<path d="m330.49 272.28c0.129-0.224 0.246-0.454 0.35-0.69-0.104 0.236-0.221 0.466-0.35 0.69z" fill="#F0B5A5"/>
<path d="m340.62 265.08c-0.47-1.23 0.54-1.11 0.32-1.82s-0.87-1.16-1.45-2.22c-0.08-0.16-0.16-0.32-0.24-0.5-0.07-0.15-0.13-0.31-0.19-0.48-0.281-0.649-0.637-1.263-1.06-1.83-0.305-0.388-0.64-0.752-1-1.09-0.81 1.43-3.55-0.1-4.9-0.72s-1.91 1.08-0.16 1.81c1.423 0.695 2.559 1.866 3.21 3.31h0.67l2.56-0.08-0.32-1-0.17-0.52c-0.012-0.025-0.018-0.052-0.016-0.08s0.011-0.054 0.026-0.077c0.015-0.024 0.036-0.042 0.06-0.055 0.025-0.013 0.052-0.019 0.08-0.018 0.062-3e-3 0.124 0.016 0.174 0.052 0.051 0.036 0.088 0.088 0.106 0.148l0.13 0.38 0.44 1.34 0.16 0.47 0.4 1.23c0.012 0.024 0.017 0.051 0.016 0.077-1e-3 0.027-9e-3 0.053-0.023 0.076s-0.034 0.042-0.057 0.055c-0.023 0.014-0.049 0.021-0.076 0.022-0.061-5e-3 -0.119-0.027-0.167-0.065-0.048-0.037-0.084-0.088-0.103-0.145l-0.21-0.64-0.28-0.85-3.15 0.1 0.14 0.27c0.12 0.26 0 0.51-0.2 0.57-0.132 0.022-0.268 1e-3 -0.386-0.06-0.119-0.062-0.215-0.16-0.274-0.28l-0.14-0.27v-0.07l-0.07-0.13c-0.024-0.066-0.054-0.13-0.09-0.19-0.042-0.088-0.093-0.171-0.15-0.25-0.186-0.283-0.433-0.521-0.725-0.694-0.291-0.173-0.617-0.278-0.955-0.306-0.154-0.015-0.309 0-0.457 0.046-0.147 0.045-0.285 0.119-0.404 0.217-0.119 0.099-0.217 0.22-0.289 0.357-0.072 0.136-0.116 0.286-0.13 0.44-0.02 0.146-0.02 0.294 0 0.44 6e-3 0.023 6e-3 0.047 0 0.07 0.022 0.078 0.049 0.155 0.08 0.23 0.09 0.31 0.17 0.6 0.23 0.87 4e-3 0.07 4e-3 0.14 0 0.21 0.41 2.19-0.55 2.81-2.2 2.61-0.083 0.011-0.167 0.011-0.25 0l-0.1-0.11c1.42 1.559 2.13 2.759 2.16 3.999l4.75 0.3 2.77 0.18c-0.042-0.158-0.075-0.318-0.1-0.48-0.09-0.74 0.05-1.39 0.69-1.68 1.95-0.9 2.05-0.99 1.32-3.169z" fill="#F0B5A5"/>
<path d="m328.19 265.04-0.16-0.17 0.16 0.18 0.32 0.34c-0.09-0.11-0.19-0.21-0.28-0.31l-0.04-0.04z" fill="#F0B5A5"/>
<path d="m206.5 302.52-4.91-2.59-0.12-0.06-3-1.59-0.13-0.06-2.84-1.48c-0.044-0.028-0.085-0.061-0.12-0.1-0.128-0.103-0.225-0.24-0.279-0.395-0.054-0.156-0.062-0.323-0.025-0.484 0.038-0.16 0.121-0.306 0.238-0.421s0.265-0.195 0.426-0.23h0.1c1.842-0.357 3.601-1.052 5.19-2.05 0.262-0.178 0.455-0.441 0.548-0.744s0.081-0.629-0.035-0.924c-0.117-0.295-0.329-0.542-0.604-0.7-0.275-0.159-0.595-0.219-0.909-0.171l-14.87 2.199c-0.719 0.11-1.426 0.29-2.11 0.54-3.072 1.061-6.3 1.598-9.549 1.59v1.91l-0.05 1.49v1.71l-0.22 6.999 0.77-0.06c1.277-0.09 2.56 0.08 3.77 0.5l0.679 0.24 9.36 3.29c1.15 0.402 2.407 0.377 3.54-0.07l4.66-1.83c0.316-0.125 0.604-0.312 0.847-0.551 0.242-0.239 0.434-0.524 0.563-0.839 0.078-0.169 0.135-0.347 0.17-0.53l0.14-0.76 1.21 0.06c0.408 0.024 0.811-0.093 1.142-0.332 0.332-0.238 0.571-0.584 0.678-0.978l0.22-0.819 4.49 1.179c0.377 0.105 0.78 0.066 1.13-0.11 0.35-0.175 0.622-0.474 0.764-0.839s0.143-0.77 4e-3 -1.135c-0.139-0.366-0.409-0.667-0.758-0.845l-0.11-0.01z" fill="#F0B5A5"/>
<path d="m73.658 202.18v-0.16c0-0.05-0.01 0.11 0 0.16z" fill="#F0B5A5"/>
<path d="m73.618 202.02c-0.18-0.63-0.34-1.27-0.47-1.92 0.13 0.65 0.29 1.29 0.47 1.92z" fill="#F0B5A5"/>
<path d="m118.76 193.82c-0.104-0.531-0.171-1.069-0.2-1.61v-0.05c-0.331-2.155-0.974-4.25-1.91-6.219-0.628-1.309-1.374-2.557-2.23-3.73l-0.06 0.08c-4.06 4.88-12-0.34-16-2.43-3.9999-2.089-7.4898 3.67-2.2199 6.14 3.8199 1.73 6.3098 5.489 7.8998 11.249l2.31-0.07 8.76-0.28-0.2-3.24-0.11-1.78c-7e-3 -0.098 6e-3 -0.197 0.037-0.291 0.032-0.093 0.081-0.18 0.146-0.254 0.066-0.074 0.145-0.135 0.233-0.179 0.089-0.043 0.185-0.069 0.284-0.075 0.199-9e-3 0.394 0.06 0.543 0.193 0.149 0.132 0.241 0.318 0.257 0.516l0.07 1.27 0.29 4.55 0.35 5.77c6e-3 0.098-6e-3 0.197-0.038 0.291-0.031 0.093-0.081 0.18-0.146 0.254s-0.144 0.135-0.233 0.179c-0.088 0.043-0.185 0.069-0.283 0.075-0.102 7e-3 -0.204-6e-3 -0.3-0.04-0.096-0.033-0.184-0.085-0.26-0.153-0.075-0.068-0.136-0.151-0.179-0.243s-0.068-0.192-0.071-0.293l-0.31-5.07-10.76 0.34c0.07 0.31 0.15 0.61 0.21 0.93 0.073 0.403-0.011 0.818-0.233 1.162-0.223 0.343-0.568 0.589-0.966 0.687-0.397 0.098-0.817 0.041-1.174-0.159-0.357-0.201-0.624-0.53-0.747-0.92l-0.24-0.91-0.07-0.24-0.12-0.44c-0.026-0.192-0.063-0.382-0.11-0.57v-0.07c-0.076-0.29-0.172-0.574-0.29-0.85-0.441-1.002-1.1711-1.85-2.0974-2.434s-2.006-0.877-3.1004-0.843c-1.0945 0.034-2.1537 0.395-3.0414 1.036-0.8878 0.641-1.5635 1.533-1.9405 2.561-0.1734 0.487-0.281 0.995-0.32 1.51 5e-3 0.073 5e-3 0.147 0 0.22-0.0248 0.279-0.0248 0.56 0 0.84v2.91c0 0.25 1e-4 0.47-0.0599 0.71-0.6 7.479-4.4499 9.559-9.8698 8.859h-0.06c-0.2718 0.01-0.543-0.031-0.8-0.12l-0.09-0.13c3.2999 5.179 4.5599 9.189 3.5699 13.259l25.09 1.66c8e-3 -0.556 0.051-1.11 0.13-1.66 0.35-2.51 1.43-4.71 3.87-5.69 7.41-3 7.85-3.28 7.35-10.709-0.47-4.17 2.83-3.77 2.74-6.189-0.1-2.17-2.47-4.53-3.26-9.21l-0.04-0.1z" fill="#F0B5A5"/>
<path d="m77.088 209.17-0.9101-1.35s0-0.09-0.07-0.12c-1.0557-1.725-1.8795-3.581-2.45-5.52 0.7265 2.511 1.8801 4.879 3.41 7l0.16 0.21 0.37 0.53-0.24-0.35-0.2699-0.4z" fill="#F0B5A5"/>
<path d="m179.29 360.82h-50.789l1.57 5.92h39.529c1.244 1e-3 2.482 0.152 3.69 0.45 2.489-0.364 4.897-1.152 7.12-2.33 0.42-0.237 0.748-0.608 0.933-1.054 0.184-0.445 0.215-0.939 0.086-1.404s-0.409-0.873-0.797-1.159c-0.388-0.287-0.86-0.436-1.342-0.423z" fill="#65684E"/>
<path d="m109.61 360.82h-48.459l0.11 0.39 1.4599 5.53h56.589l-1.57-5.92h-8.13z" fill="#65684E"/>
<path d="m50.418 360.82h-1.38c-0.3488 0-0.6923 0.086-1 0.25-0.3401 0.186-0.6238 0.46-0.8214 0.794-0.1977 0.333-0.302 0.714-0.302 1.101 0 0.388 0.1043 0.768 0.302 1.102 0.1976 0.333 0.4813 0.607 0.8214 0.793 1.2552 0.679 2.5794 1.222 3.95 1.62l-1.26-4.73-0.31-0.93z" fill="#65684E"/>
<path d="m10.05 479.4h6.9799l5.8198-164.08h-12.8v164.08z" fill="#F8C77E"/>
<path d="m207.96 277.01h-0.31l-6.49 0.46-1.17 0.09c-2.64 0.18-7.51 5.79-10 8.91h23.7c0.056-2.443-0.429-4.867-1.42-7.1-0.406-0.774-1.032-1.411-1.799-1.831-0.766-0.42-1.64-0.604-2.511-0.529z" fill="#F8C77E"/>
<path d="m391.6 311.82-13.429-4.19h-0.11l2.419-7.669h-103.99v15.399h138.07l0.11-1.39s-0.55 0.21-1.52 0.47c-7.25 1.9-10.66 0.48-21.55-2.62z" fill="#F8C77E"/>
<path d="m542.83 299.93h-14.399l1.12 7.699 1.12 7.7h21.819v-15.399h-9.66z" fill="#F8C77E"/>
<path d="m157.94 201.72h92.997v-118.26h-92.997v118.26zm4.399-113.84h84.238v109.44h-84.238v-109.44z" fill="#F8C77E"/>
<path d="m195.5 95.024h-25.779v13.199h32.149c-3.74-4.27-6.37-8.6292-6.37-13.199z" fill="#F8C77E"/>
<path d="m224.88 142.59c4.33-12.439-13.109-23.088-22.999-34.367v21.918h11.919v3.38h-21.999v-3.38h10.11l-32.149-13.299v25.748h44.069v12.649h25.399v-60.215l-0.36 47.566h-13.99z" fill="#F8C77E"/>
<path d="m187.18 190.17h26.609v-17.469h-9.14c0 4.633-1.84 9.076-5.116 12.352-3.277 3.276-7.72 5.117-12.353 5.117z" fill="#F8C77E"/>
<path d="m169.72 172.7v17.469h17.459c-4.631-3e-3 -9.072-1.845-12.346-5.12-3.274-3.276-5.113-7.718-5.113-12.349z" fill="#F8C77E"/>
<path d="m202.82 471.65-9.45-48.576-8.49-43.706c-0.7-3.553-2.611-6.753-5.406-9.056s-6.302-3.566-9.923-3.573h-39.529l-1.52-5.92-5.52-20.828-1.8-6.8-4.74-17.868-2-7.7-2-7.699v-0.06l-0.43-1.65-0.4-1.49-0.44-1.65-0.63-2.38c-3.08-11.489-14.899-20.818-26.389-20.818h-36.519c-7.2899 0-12.7 3.76-14.9 9.429-1.3268 3.663-1.4459 7.654-0.3399 11.389l1.9099 7.23 1.9999 7.699 2 7.7 8.7798 33.167 3.2599 12.329 0.24 0.93 1.26 4.73 0.0999 0.4c0.2 2.789-0.6199 5.599-1.1599 8.379l-20.17 104.16h7.1798l22.939-96.563c0.2763-1.158 0.9347-2.189 1.869-2.928 0.9343-0.738 2.0901-1.14 3.2809-1.141h34.109l-19.59 100.74h7.1798l22.119-93.103 0.82-3.44c0.275-1.159 0.933-2.191 1.868-2.93 0.934-0.738 2.091-1.14 3.282-1.139h4.7c0.983 0.201 1.888 0.678 2.609 1.376s1.228 1.587 1.461 2.563l17.999 75.874 2.48 10.409 2.46 10.28h7.18l-1.52-7.79-2.54-12.919-1-5.519-2.72-13.769-11.699-60.155c-0.021-0.118-0.048-0.235-0.08-0.35h34.079c1.191-1e-3 2.348 0.401 3.282 1.139 0.935 0.739 1.593 1.771 1.868 2.93l17.999 75.744 2.51 10.599 2.4 10.09v0.13h7.18v-0.13l-1.5-7.77zm-97.118-156.33 4.65 17.578 3.08 11.619 4.31 16.299 1.57 5.92h-56.588l-1.4599-5.52-0.1-0.4-7.7998-29.448-4.2499-16.048-2-7.7-1.6699-6.189h56.589l1.639 6.189 2.03 7.7z" fill="#F8C77E"/>
<path d="m293.58 167.69c-0.95-4.349 0.16-8.849 0.47-13.299 0.63-9.049-2.899-19.108-10.999-23.198-2.077-0.987-4.282-1.68-6.55-2.06v60.156l8.85 12.999 2.08 2.999c0.2-0.17 0.39-0.36 0.59-0.54 7.459-6.599 12.789-16.838 9.849-26.307-1.15-3.68-3.46-6.99-4.29-10.75z" fill="#CDD3AC"/>
<path d="m349.17 84.455c-0.39-4.4197-2.46-8.5493-2.86-12.999-0.36-3.9997 0.67-7.9994 0.82-11.999 0.102-3.0755-0.272-6.1483-1.11-9.1093-1.357-4.6907-3.556-9.0954-6.489-12.999-4.72-6.3995-10.91-11.569-17.26-16.349-7.25 6.2295-15.26 12.759-18.79 21.558-0.23 0.5799-0.44 1.1599-0.63 1.7599-1.35 4.2096-1.69 8.7193-3.209 12.879-1.52 4.1597-4.17 7.8294-6 11.899-2.444 5.6017-3.191 11.797-2.15 17.819 0.78 4.4996 2.54 8.7893 3.13 13.319 1.27 9.809-3 20.308 0.84 29.427 3 7.08 8.439 10.27 15.859 10.79 0.49 0 1 0.06 1.48 0.07s1.08 0 1.62 0c4.437-0.305 8.689-1.892 12.24-4.569 3.55-2.678 6.246-6.329 7.76-10.51 1-2.93 1.37-6 2.24-9 3.26-11.169 13.539-20.468 12.509-31.987z" fill="#CDD3AC"/>
<path d="m410.55 148.26c-10 1.36-22.51 3.76-28.999 11.539-2 2.36-3.4 5.15-5.44 7.469-5.79 6.59-15.78 8.58-20.88 15.729-3.18 4.47-3.93 10.309-7.06 14.819-2.66 3.82-6.84 6.399-9.489 10.229-1.656 2.456-2.634 5.305-2.836 8.26s0.379 5.911 1.686 8.569c1.83 3.61 4.92 6.409 7.229 9.739 1.184 1.589 2.19 3.302 3 5.11h16.13c0.701-0.677 1.35-1.405 1.94-2.18 2.61-3.45 4.14-7.72 7.31-10.649 3.71-3.45 9.069-4.5 13.189-7.45 4.77-3.419 7.47-9.109 8.63-14.869 0.83-4.149 1-8.549 3-12.269 1.69-3.129 4.53-5.459 6.76-8.229 4.004-4.997 6.004-11.307 5.61-17.699-0.42-6.149-2.93-12.819 0.22-18.118z" fill="#CDD3AC"/>
<path d="m240.79 479.42h35.699v-68.895h-45.929l10.23 68.895zm15-56.486h13.619c0.874 0.047 1.696 0.428 2.298 1.063s0.937 1.477 0.937 2.352-0.335 1.716-0.937 2.352c-0.602 0.635-1.424 1.015-2.298 1.063h-13.619c-0.907-3e-3 -1.775-0.364-2.416-1.005-0.64-0.641-1.002-1.509-1.004-2.415-3e-3 -0.904 0.352-1.772 0.987-2.414 0.635-0.643 1.499-1.008 2.403-1.016l0.03 0.02z" fill="#CDD3AC"/>
</svg>
